# xmcd
#
# Track frame offsets: 
#        150
#        12416
#        23985
#        36187
#        49183
#        62002
#        75005
#        87319
#        101132
#        113565
#        124767
#        136882
#        146137
#        158742
#        171070
#        183200
#        193230
#        207199
#        220825
#        232524
#        244847
#        257856
#        268811
#        280902
#        294485
#        307178
#
# Disc length: 4278 seconds
#
# Revision: 0
# Processed by: cddbd v1.5PL3 Copyright (c) Steve Scherf et al.
# Submitted via: ExactAudioCopy v0.90b4
#
DISCID=7410b41a
DTITLE=Billie Holiday - The Best Of
DYEAR=2000
DGENRE=Blues
TTITLE0=Body and Soul
TTITLE1=The Very Thought of You
TTITLE2=God Bless the Child
TTITLE3=Strange Fruit
TTITLE4=What a Little Moonlight Can Do
TTITLE5=Miss Brown To You
TTITLE6=A Sailboat In the Moonlight
TTITLE7=Moonin' Low
TTITLE8=Summertime
TTITLE9=Billie's Blues
TTITLE10=I Can't Get Started
TTITLE11=Trav'lin' All Alone
TTITLE12=The Man I Love
TTITLE13=I've Got My Love To Keep Me Warm
TTITLE14=I've Gotta Right To Sing the Blues
TTITLE15=When A Woman Loves A Man
TTITLE16=These Foolish Things
TTITLE17=I Cried For You
TTITLE18=Me, Myself and I
TTITLE19=Without Your Love
TTITLE20=Gettin Some Fun Out Of Life
TTITLE21=No Regrets
TTITLE22=A Fine Romance
TTITLE23=Promises From Heaven
TTITLE24=More Than You Know
TTITLE25=Georgia On My Mind
EXTD=
EXTT0=
EXTT1=
EXTT2=
EXTT3=
EXTT4=
EXTT5=
EXTT6=
EXTT7=
EXTT8=
EXTT9=
EXTT10=
EXTT11=
EXTT12=
EXTT13=
EXTT14=
EXTT15=
EXTT16=
EXTT17=
EXTT18=
EXTT19=
EXTT20=
EXTT21=
EXTT22=
EXTT23=
EXTT24=
EXTT25=
PLAYORDER=
